<?xml version="1.0" encoding="utf-8"?>
<!-- Generator: Adobe Illustrator 19.0.1, SVG Export Plug-In . SVG Version: 6.00 Build 0)  -->
<svg version="1.1" xmlns="http://www.w3.org/2000/svg" xmlns:xlink="http://www.w3.org/1999/xlink" x="0px" y="0px"
	 viewBox="0 0 56.2 56.2" style="enable-background:new 0 0 56.2 56.2;" xml:space="preserve">
<style type="text/css">
	.st0{fill:#4A4A4A;}
	.st1{fill:#EE6C4D;}
</style>
<g id="Poochtography_xA0_Image_1_">
	<g>
		<path class="st0" d="M27.1,0.2c0.9,0,1.8,0,2.6,0c0.3,0.1,0.7,0.2,1,0.2c12,1,22.3,9.8,24.9,21.6c0.3,1.3,0.5,2.6,0.7,3.9
			c0,1.6,0,3.2,0,4.8c-0.1,0.3-0.2,0.6-0.2,0.9C54.7,43.3,46.4,52.7,35,55.5c-1.6,0.4-3.3,0.6-5,0.9c-1,0-2.1,0-3.1,0
			c-0.7-0.1-1.5-0.2-2.2-0.3c-13.6-2-23.5-12.8-24.2-26.6C-0.2,16,9.3,3.7,22.5,1C24.1,0.7,25.6,0.5,27.1,0.2z M28.4,48.8
			c11.3,0,20.5-9.3,20.5-20.5c0-11.2-9.2-20.4-20.5-20.4C17.2,7.8,7.9,17,7.9,28.3C7.9,39.6,17.1,48.8,28.4,48.8z"/>
	</g>
</g>
<g id="Layer_3_xA0_Image_1_">
	<g>
		<path class="st1" d="M35.3,10.3c0.2,0,0.5,0,0.7,0c0.6,0.4,0.7,1,0.8,1.6c0.3,1.6,0.4,3.2,0.2,4.8c-0.2,2.2-0.7,4.4-1,6.6
			c0,0.4,0,0.7,0.1,1.1c0.7,2.9,0.6,5.6,0,8.6c-0.8,3.5-1.7,7-1.8,10.6c0,0.8,0.3,1.4,0.9,1.9c0.4,0.3,0.9,0.7,0.6,1.3
			c-0.2,0.5-0.8,0.5-1.3,0.5c-2.1,0-2.5-0.4-2.6-2.6c-0.1-3.2,0.1-6.3,0.5-9.4c0.2-1.1-0.1-1.3-1.1-0.9c-1.1,0.4-1.7,1.2-1.6,2.7
			c0.1,1.5,0.1,3.1,0.6,4.6c0.5,1.5,0.2,3.1,0.9,4.6c0.3,0.6-0.1,1.1-0.8,1.1c-0.4,0-0.7,0-1.1,0c-0.7,0.1-1.1-0.3-1.2-1
			c-0.2-1.3-0.2-2.6-0.3-3.9c-0.2-2.7-1.2-5.3-1.3-8c-0.1-0.8-0.8-1.1-1.8-1.2c1.4,2.9-0.3,4.9-1.7,7c-0.5,0.7-0.9,1.5-1,2.4
			c-0.1,1.1,0.5,1.8,1.6,2.3c0.5,0.2,1.2,0.4,1.1,1.2c-0.1,0.8-0.7,1.1-1.4,1.2c-2.2,0.4-2.7,0.1-3.9-1.8c-1.4-2.1-2.3-4.2-1.2-6.7
			c0.5-1,0.1-2-0.3-3c-0.2-0.4-0.4-0.9-0.9-0.9c-0.6,0-0.4,0.7-0.5,1c-0.4,0.8-0.7,1.7-1.7,2c-0.2-0.1-0.3-0.2-0.4-0.4
			c0.3-1.8,1-3.4,1.1-5.2c0-0.9,0.1-1.8,0.5-2.7c0.9-2,2.2-3.6,4.3-4.4c2.4-1,4.8-1.6,7.3-2.3c1.2-0.4,1.7-1,1.4-2.2
			c-0.3-1.2-0.4-2.5-1.3-3.4c-0.3-0.3-0.5-0.8-0.5-1.3c0.1-1.2,0.1-2.4,0.2-3.6c0-0.4,0.1-0.8,0.6-1c0.4-0.1,0.8,0.1,1.1,0.4
			c0.6,0.5,1,1,1.3,1.7c0.4,1,1.2,0.9,2.1,0.9c0.9,0,0.9-0.7,1.1-1.3C33.9,12,34.3,11,35.3,10.3z"/>
		<path class="st1" d="M14.9,37.9c-0.1,0.4-0.4,0.5-0.7,0.7c-0.1-0.4,0-0.8,0.5-0.9C14.7,37.8,14.8,37.8,14.9,37.9z"/>
	</g>
</g>
</svg>
